<?xml version="1.0" encoding="UTF-8" standalone="no"?>
<svg
   xmlns:dc="http://purl.org/dc/elements/1.1/"
   xmlns:cc="http://creativecommons.org/ns#"
   xmlns:rdf="http://www.w3.org/1999/02/22-rdf-syntax-ns#"
   xmlns:svg="http://www.w3.org/2000/svg"
   xmlns="http://www.w3.org/2000/svg"
   xmlns:sodipodi="http://sodipodi.sourceforge.net/DTD/sodipodi-0.dtd"
   xmlns:inkscape="http://www.inkscape.org/namespaces/inkscape"
   sodipodi:docname="parens_path_extraction.svg"
   inkscape:version="1.0 (4035a4fb49, 2020-05-01)"
   id="svg911"
   version="1.1"
   viewBox="0 0 210 297"
   height="297mm"
   width="210mm">
  <defs
     id="defs905" />
  <sodipodi:namedview
     inkscape:window-maximized="1"
     inkscape:window-y="0"
     inkscape:window-x="0"
     inkscape:window-height="1078"
     inkscape:window-width="1918"
     showgrid="false"
     inkscape:document-rotation="0"
     inkscape:current-layer="layer1"
     inkscape:document-units="mm"
     inkscape:cy="581.72104"
     inkscape:cx="454.06684"
     inkscape:zoom="0.98994949"
     inkscape:pageshadow="2"
     inkscape:pageopacity="0.0"
     borderopacity="1.0"
     bordercolor="#666666"
     pagecolor="#ffffff"
     id="base" />
  <metadata
     id="metadata908">
    <rdf:RDF>
      <cc:Work
         rdf:about="">
        <dc:format>image/svg+xml</dc:format>
        <dc:type
           rdf:resource="http://purl.org/dc/dcmitype/StillImage" />
        <dc:title></dc:title>
      </cc:Work>
    </rdf:RDF>
  </metadata>
  <g
     id="layer1"
     inkscape:groupmode="layer"
     inkscape:label="Layer 1">
    <g
       transform="translate(50.854437,149.68094)"
       aria-label="("
       id="text890"
       style="font-size:35.2777px;line-height:1.25;font-family:FreeSerif;-inkscape-font-specification:FreeSerif;letter-spacing:0.230188px;word-spacing:0px;stroke-width:0.264583">
      <path
         d="m -5.9407944,-27.289763 q -0.9172202,-0.564443 -1.9049957,-1.37583 -0.9877756,-0.776109 -2.2577739,-2.187217 -1.234719,-1.411108 -2.187217,-2.998605 -0.952498,-1.622774 -1.622774,-3.880546 -0.634999,-2.257773 -0.634999,-4.691934 0,-2.539995 0.634999,-4.797767 0.670276,-2.293051 1.552219,-3.774714 0.881942,-1.516941 2.222495,-2.892771 1.3758307,-1.411108 2.2577732,-2.081385 0.8819424,-0.670276 2.0461065,-1.411107 l 0.3174993,0.564443 q -1.5522188,1.269997 -2.5047166,2.29305 -0.9524979,1.023053 -1.834441,2.681105 -0.8819424,1.622774 -1.2699974,3.915825 -0.388055,2.257772 -0.388055,5.397488 0,3.280826 0.388055,5.644431 0.388055,2.363606 1.2699974,4.021658 0.8819431,1.69333 1.834441,2.75166 0.9524978,1.058331 2.5047166,2.257773 z"
         style="stroke-width:0.264583"
         id="path892" />
    </g>
  </g>
</svg>
